<mxfile host="TQq">
  <diagram id="7l5" name="style_01">
    <mxGraphModel dx="0" dy="0" background="#f5f5f5" grid="0" gridSize="10" guides="1" tooltips="1" connect="1" arrows="1" fold="1" page="1" pageScale="1" pageWidth="1169" pageHeight="827" math="0" shadow="0">
      <root>
        <mxCell id="page_root_7l5" parent="7l5"/>
        <mxCell id="node_root_7l5" parent="page_root_7l5"/>
        <mxCell id="7l5-2" value="" style="whiteSpace=wrap;html=1;fillColor=#d5e8d4;strokeColor=#82b366;fontColor=#333333" vertex="1" parent="node_root_7l5">
          <mxGeometry x="30" y="30" width="160" height="160" as="geometry"/>
        </mxCell>
        <mxCell id="7l5-3" value="style_01" style="whiteSpace=wrap;html=1;fontColor=#aaaaaa;text;fontSize=89;fontStyle=1;fillColor=none" vertex="1" parent="node_root_7l5">
          <mxGeometry x="280" y="85" width="100" height="50" as="geometry"/>
        </mxCell>
        <mxCell id="7l5-4" value="style_01" style="whiteSpace=wrap;html=1;fontColor=#aaaaaa;text;fontSize=67;fontStyle=1;fillColor=none" vertex="1" parent="node_root_7l5">
          <mxGeometry x="500" y="85" width="100" height="50" as="geometry"/>
        </mxCell>
        <mxCell id="7l5-5" value="style_01" style="whiteSpace=wrap;html=1;fontColor=#aaaaaa;text;fontSize=50;fontStyle=1;fillColor=none" vertex="1" parent="node_root_7l5">
          <mxGeometry x="60" y="305" width="100" height="50" as="geometry"/>
        </mxCell>
        <mxCell id="7l5-6" value="style_01" style="whiteSpace=wrap;html=1;fontColor=#aaaaaa;text;fontSize=37;fontStyle=1;fillColor=none" vertex="1" parent="node_root_7l5">
          <mxGeometry x="280" y="305" width="100" height="50" as="geometry"/>
        </mxCell>
        <mxCell id="7l5-7" value="style_01" style="whiteSpace=wrap;html=1;fontColor=#aaaaaa;text;fontSize=28;fontStyle=1;fillColor=none" vertex="1" parent="node_root_7l5">
          <mxGeometry x="500" y="305" width="100" height="50" as="geometry"/>
        </mxCell>
        <mxCell id="7l5-8" value="style_01" style="whiteSpace=wrap;html=1;fontColor=#aaaaaa;text;fontSize=21;fontStyle=1;fillColor=none" vertex="1" parent="node_root_7l5">
          <mxGeometry x="60" y="525" width="100" height="50" as="geometry"/>
        </mxCell>
        <mxCell id="7l5-9" value="style_01" style="whiteSpace=wrap;html=1;fontColor=#aaaaaa;text;fontSize=16;fontStyle=1;fillColor=none" vertex="1" parent="node_root_7l5">
          <mxGeometry x="280" y="525" width="100" height="50" as="geometry"/>
        </mxCell>
      </root>
    </mxGraphModel>
  </diagram>
  <diagram id="yws" name="style_02">
    <mxGraphModel dx="0" dy="0" background="#dae8fc" grid="0" gridSize="10" guides="1" tooltips="1" connect="1" arrows="1" fold="1" page="1" pageScale="1" pageWidth="1169" pageHeight="827" math="0" shadow="0">
      <root>
        <mxCell id="page_root_yws" parent="yws"/>
        <mxCell id="node_root_yws" parent="page_root_yws"/>
        <mxCell id="yws-2" value="" style="whiteSpace=wrap;html=1;fillColor=#d5e8d4;strokeColor=#82b366;fontColor=#333333" vertex="1" parent="node_root_yws">
          <mxGeometry x="30" y="30" width="160" height="160" as="geometry"/>
        </mxCell>
        <mxCell id="yws-3" value="style_02" style="whiteSpace=wrap;html=1;fontColor=#aaaaaa;text;fontSize=89;fontStyle=1;fillColor=none" vertex="1" parent="node_root_yws">
          <mxGeometry x="280" y="85" width="100" height="50" as="geometry"/>
        </mxCell>
        <mxCell id="yws-4" value="style_02" style="whiteSpace=wrap;html=1;fontColor=#aaaaaa;text;fontSize=67;fontStyle=1;fillColor=none" vertex="1" parent="node_root_yws">
          <mxGeometry x="500" y="85" width="100" height="50" as="geometry"/>
        </mxCell>
        <mxCell id="yws-5" value="style_02" style="whiteSpace=wrap;html=1;fontColor=#aaaaaa;text;fontSize=50;fontStyle=1;fillColor=none" vertex="1" parent="node_root_yws">
          <mxGeometry x="60" y="305" width="100" height="50" as="geometry"/>
        </mxCell>
        <mxCell id="yws-6" value="style_02" style="whiteSpace=wrap;html=1;fontColor=#aaaaaa;text;fontSize=37;fontStyle=1;fillColor=none" vertex="1" parent="node_root_yws">
          <mxGeometry x="280" y="305" width="100" height="50" as="geometry"/>
        </mxCell>
        <mxCell id="yws-7" value="style_02" style="whiteSpace=wrap;html=1;fontColor=#aaaaaa;text;fontSize=28;fontStyle=1;fillColor=none" vertex="1" parent="node_root_yws">
          <mxGeometry x="500" y="305" width="100" height="50" as="geometry"/>
        </mxCell>
        <mxCell id="yws-8" value="style_02" style="whiteSpace=wrap;html=1;fontColor=#aaaaaa;text;fontSize=21;fontStyle=1;fillColor=none" vertex="1" parent="node_root_yws">
          <mxGeometry x="60" y="525" width="100" height="50" as="geometry"/>
        </mxCell>
        <mxCell id="yws-9" value="style_02" style="whiteSpace=wrap;html=1;fontColor=#aaaaaa;text;fontSize=16;fontStyle=1;fillColor=none" vertex="1" parent="node_root_yws">
          <mxGeometry x="280" y="525" width="100" height="50" as="geometry"/>
        </mxCell>
      </root>
    </mxGraphModel>
  </diagram>
  <diagram id="uBb" name="style_03">
    <mxGraphModel dx="0" dy="0" background="#d5e8d4" grid="0" gridSize="10" guides="1" tooltips="1" connect="1" arrows="1" fold="1" page="1" pageScale="1" pageWidth="1169" pageHeight="827" math="0" shadow="0">
      <root>
        <mxCell id="page_root_uBb" parent="uBb"/>
        <mxCell id="node_root_uBb" parent="page_root_uBb"/>
        <mxCell id="uBb-2" value="" style="whiteSpace=wrap;html=1;fillColor=#d5e8d4;strokeColor=#82b366;fontColor=#333333" vertex="1" parent="node_root_uBb">
          <mxGeometry x="30" y="30" width="160" height="160" as="geometry"/>
        </mxCell>
        <mxCell id="uBb-3" value="style_03" style="whiteSpace=wrap;html=1;fontColor=#aaaaaa;text;fontSize=89;fontStyle=1;fillColor=none" vertex="1" parent="node_root_uBb">
          <mxGeometry x="280" y="85" width="100" height="50" as="geometry"/>
        </mxCell>
        <mxCell id="uBb-4" value="style_03" style="whiteSpace=wrap;html=1;fontColor=#aaaaaa;text;fontSize=67;fontStyle=1;fillColor=none" vertex="1" parent="node_root_uBb">
          <mxGeometry x="500" y="85" width="100" height="50" as="geometry"/>
        </mxCell>
        <mxCell id="uBb-5" value="style_03" style="whiteSpace=wrap;html=1;fontColor=#aaaaaa;text;fontSize=50;fontStyle=1;fillColor=none" vertex="1" parent="node_root_uBb">
          <mxGeometry x="60" y="305" width="100" height="50" as="geometry"/>
        </mxCell>
        <mxCell id="uBb-6" value="style_03" style="whiteSpace=wrap;html=1;fontColor=#aaaaaa;text;fontSize=37;fontStyle=1;fillColor=none" vertex="1" parent="node_root_uBb">
          <mxGeometry x="280" y="305" width="100" height="50" as="geometry"/>
        </mxCell>
        <mxCell id="uBb-7" value="style_03" style="whiteSpace=wrap;html=1;fontColor=#aaaaaa;text;fontSize=28;fontStyle=1;fillColor=none" vertex="1" parent="node_root_uBb">
          <mxGeometry x="500" y="305" width="100" height="50" as="geometry"/>
        </mxCell>
        <mxCell id="uBb-8" value="style_03" style="whiteSpace=wrap;html=1;fontColor=#aaaaaa;text;fontSize=21;fontStyle=1;fillColor=none" vertex="1" parent="node_root_uBb">
          <mxGeometry x="60" y="525" width="100" height="50" as="geometry"/>
        </mxCell>
        <mxCell id="uBb-9" value="style_03" style="whiteSpace=wrap;html=1;fontColor=#aaaaaa;text;fontSize=16;fontStyle=1;fillColor=none" vertex="1" parent="node_root_uBb">
          <mxGeometry x="280" y="525" width="100" height="50" as="geometry"/>
        </mxCell>
      </root>
    </mxGraphModel>
  </diagram>
  <diagram id="U6l" name="style_04">
    <mxGraphModel dx="0" dy="0" background="#ffe6cc" grid="0" gridSize="10" guides="1" tooltips="1" connect="1" arrows="1" fold="1" page="1" pageScale="1" pageWidth="1169" pageHeight="827" math="0" shadow="0">
      <root>
        <mxCell id="page_root_U6l" parent="U6l"/>
        <mxCell id="node_root_U6l" parent="page_root_U6l"/>
        <mxCell id="U6l-2" value="" style="whiteSpace=wrap;html=1;fillColor=#d5e8d4;strokeColor=#82b366;fontColor=#333333" vertex="1" parent="node_root_U6l">
          <mxGeometry x="30" y="30" width="160" height="160" as="geometry"/>
        </mxCell>
        <mxCell id="U6l-3" value="style_04" style="whiteSpace=wrap;html=1;fontColor=#aaaaaa;text;fontSize=89;fontStyle=1;fillColor=none" vertex="1" parent="node_root_U6l">
          <mxGeometry x="280" y="85" width="100" height="50" as="geometry"/>
        </mxCell>
        <mxCell id="U6l-4" value="style_04" style="whiteSpace=wrap;html=1;fontColor=#aaaaaa;text;fontSize=67;fontStyle=1;fillColor=none" vertex="1" parent="node_root_U6l">
          <mxGeometry x="500" y="85" width="100" height="50" as="geometry"/>
        </mxCell>
        <mxCell id="U6l-5" value="style_04" style="whiteSpace=wrap;html=1;fontColor=#aaaaaa;text;fontSize=50;fontStyle=1;fillColor=none" vertex="1" parent="node_root_U6l">
          <mxGeometry x="60" y="305" width="100" height="50" as="geometry"/>
        </mxCell>
        <mxCell id="U6l-6" value="style_04" style="whiteSpace=wrap;html=1;fontColor=#aaaaaa;text;fontSize=37;fontStyle=1;fillColor=none" vertex="1" parent="node_root_U6l">
          <mxGeometry x="280" y="305" width="100" height="50" as="geometry"/>
        </mxCell>
        <mxCell id="U6l-7" value="style_04" style="whiteSpace=wrap;html=1;fontColor=#aaaaaa;text;fontSize=28;fontStyle=1;fillColor=none" vertex="1" parent="node_root_U6l">
          <mxGeometry x="500" y="305" width="100" height="50" as="geometry"/>
        </mxCell>
        <mxCell id="U6l-8" value="style_04" style="whiteSpace=wrap;html=1;fontColor=#aaaaaa;text;fontSize=21;fontStyle=1;fillColor=none" vertex="1" parent="node_root_U6l">
          <mxGeometry x="60" y="525" width="100" height="50" as="geometry"/>
        </mxCell>
        <mxCell id="U6l-9" value="style_04" style="whiteSpace=wrap;html=1;fontColor=#aaaaaa;text;fontSize=16;fontStyle=1;fillColor=none" vertex="1" parent="node_root_U6l">
          <mxGeometry x="280" y="525" width="100" height="50" as="geometry"/>
        </mxCell>
      </root>
    </mxGraphModel>
  </diagram>
  <diagram id="V4E" name="style_05">
    <mxGraphModel dx="0" dy="0" background="#fff2cc" grid="0" gridSize="10" guides="1" tooltips="1" connect="1" arrows="1" fold="1" page="1" pageScale="1" pageWidth="1169" pageHeight="827" math="0" shadow="0">
      <root>
        <mxCell id="page_root_V4E" parent="V4E"/>
        <mxCell id="node_root_V4E" parent="page_root_V4E"/>
        <mxCell id="V4E-2" value="" style="whiteSpace=wrap;html=1;fillColor=#d5e8d4;strokeColor=#82b366;fontColor=#333333" vertex="1" parent="node_root_V4E">
          <mxGeometry x="30" y="30" width="160" height="160" as="geometry"/>
        </mxCell>
        <mxCell id="V4E-3" value="style_05" style="whiteSpace=wrap;html=1;fontColor=#aaaaaa;text;fontSize=89;fontStyle=1;fillColor=none" vertex="1" parent="node_root_V4E">
          <mxGeometry x="280" y="85" width="100" height="50" as="geometry"/>
        </mxCell>
        <mxCell id="V4E-4" value="style_05" style="whiteSpace=wrap;html=1;fontColor=#aaaaaa;text;fontSize=67;fontStyle=1;fillColor=none" vertex="1" parent="node_root_V4E">
          <mxGeometry x="500" y="85" width="100" height="50" as="geometry"/>
        </mxCell>
        <mxCell id="V4E-5" value="style_05" style="whiteSpace=wrap;html=1;fontColor=#aaaaaa;text;fontSize=50;fontStyle=1;fillColor=none" vertex="1" parent="node_root_V4E">
          <mxGeometry x="60" y="305" width="100" height="50" as="geometry"/>
        </mxCell>
        <mxCell id="V4E-6" value="style_05" style="whiteSpace=wrap;html=1;fontColor=#aaaaaa;text;fontSize=37;fontStyle=1;fillColor=none" vertex="1" parent="node_root_V4E">
          <mxGeometry x="280" y="305" width="100" height="50" as="geometry"/>
        </mxCell>
        <mxCell id="V4E-7" value="style_05" style="whiteSpace=wrap;html=1;fontColor=#aaaaaa;text;fontSize=28;fontStyle=1;fillColor=none" vertex="1" parent="node_root_V4E">
          <mxGeometry x="500" y="305" width="100" height="50" as="geometry"/>
        </mxCell>
        <mxCell id="V4E-8" value="style_05" style="whiteSpace=wrap;html=1;fontColor=#aaaaaa;text;fontSize=21;fontStyle=1;fillColor=none" vertex="1" parent="node_root_V4E">
          <mxGeometry x="60" y="525" width="100" height="50" as="geometry"/>
        </mxCell>
        <mxCell id="V4E-9" value="style_05" style="whiteSpace=wrap;html=1;fontColor=#aaaaaa;text;fontSize=16;fontStyle=1;fillColor=none" vertex="1" parent="node_root_V4E">
          <mxGeometry x="280" y="525" width="100" height="50" as="geometry"/>
        </mxCell>
      </root>
    </mxGraphModel>
  </diagram>
</mxfile>